HIERARCHY
ROOT Hips
{
	OFFSET	0.00	0.00	0.00
	CHANNELS 6 Xposition Yposition Zposition Zrotation Xrotation Yrotation
	JOINT Chest
	{
		OFFSET	 0.00	 5.21	 0.00
		CHANNELS 3 Zrotation Xrotation Yrotation
		JOINT Neck
		{
			OFFSET	 0.00	 18.65	 0.00
			CHANNELS 3 Zrotation Xrotation Yrotation
			JOINT Head
			{
				OFFSET	 0.00	 5.45	 0.00
				CHANNELS 3 Zrotation Xrotation Yrotation
				End Site 
				{
					OFFSET	 0.00	 3.87	 0.00
				}
			}
		}
		JOINT LeftCollar
		{
			OFFSET	 1.12	 16.23	 1.87
			CHANNELS 3 Zrotation Xrotation Yrotation
			JOINT LeftUpArm
			{
				OFFSET	 5.54	 0.00	 0.00
				CHANNELS 3 Zrotation Xrotation Yrotation
				JOINT LeftLowArm
				{
					OFFSET	 0.00	-11.96	 0.00
					CHANNELS 3 Zrotation Xrotation Yrotation
					JOINT LeftHand
					{
						OFFSET	 0.00	-9.93	 0.00
						CHANNELS 3 Zrotation Xrotation Yrotation
						End Site 
						{
							OFFSET	 0.00	-7.00	 0.00
						}
					}
				}
			}
		}
		JOINT RightCollar
		{
			OFFSET	-1.12	 16.23	 1.87
			CHANNELS 3 Zrotation Xrotation Yrotation
			JOINT RightUpArm
			{
				OFFSET	-6.07	 0.00	 0.00
				CHANNELS 3 Zrotation Xrotation Yrotation
				JOINT RightLowArm
				{
					OFFSET	 0.00	-11.82	 0.00
					CHANNELS 3 Zrotation Xrotation Yrotation
					JOINT RightHand
					{
						OFFSET	 0.00	-10.65	 0.00
						CHANNELS 3 Zrotation Xrotation Yrotation
						End Site 
						{
							OFFSET	 0.00	-7.00	 0.00
						}
					}
				}
			}
		}
	}
	JOINT LeftUpLeg
	{
		OFFSET	 3.91	 0.00	 0.00
		CHANNELS 3 Zrotation Xrotation Yrotation
		JOINT LeftLowLeg
		{
			OFFSET	 0.00	-18.34	 0.00
			CHANNELS 3 Zrotation Xrotation Yrotation
			JOINT LeftFoot
			{
				OFFSET	 0.00	-17.37	 0.00
				CHANNELS 3 Zrotation Xrotation Yrotation
				End Site 
				{
					OFFSET	 0.00	-3.46	 0.00
				}
			}
		}
	}
	JOINT RightUpLeg
	{
		OFFSET	-3.91	 0.00	 0.00
		CHANNELS 3 Zrotation Xrotation Yrotation
		JOINT RightLowLeg
		{
			OFFSET	 0.00	-17.63	 0.00
			CHANNELS 3 Zrotation Xrotation Yrotation
			JOINT RightFoot
			{
				OFFSET	 0.00	-17.14	 0.00
				CHANNELS 3 Zrotation Xrotation Yrotation
				End Site 
				{
					OFFSET	 0.00	-3.75	 0.00
				}
			}
		}
	}
}
MOTION
Frames:   25
Frame Time: 0.133333
 8.03	 35.01	 88.36	-3.41	 14.78	-164.35	 13.09	 40.30	-24.60	 7.88	 43.80	 0.00	-3.61	-41.45	 5.82	 10.08	 0.00	 10.21	 97.95	-23.53	-2.14	-101.86	-80.77	-98.91	 0.69	 0.03	 0.00	-14.04	 0.00	-10.50	-85.52	-13.72	-102.93	 61.91	-61.18	 65.18	-1.57	 0.69	 0.02	 15.00	 22.78	-5.92	 14.93	 49.99	 6.60	 0.00	-1.14	 0.00	-16.58	-10.51	-3.11	 15.38	 52.66	-21.80	 0.00	-23.95	 0.00	
 7.81	 35.10	 86.47	-3.78	 12.94	-166.97	 12.64	 42.57	-22.34	 7.67	 43.61	 0.00	-4.23	-41.41	 4.89	 19.10	 0.00	 4.16	 93.12	-9.69	-9.43	 132.67	-81.86	 136.80	 0.70	 0.37	 0.00	-8.62	 0.00	-21.82	-87.31	-27.57	-100.09	 56.17	-61.56	 58.72	-1.63	 0.95	 0.03	 13.16	 15.44	-3.56	 7.97	 59.29	 4.97	 0.00	 1.64	 0.00	-17.18	-10.02	-3.08	 13.56	 53.38	-18.07	 0.00	-25.93	 0.00	
 0.00	 39.58	 0.00	-0.27	-12.65	 0.67	 13.98	 11.35	-2.81	 2.00	 2.50	 8.67	-3.84	 2.89	 2.11	 1.11	 16.39	-0.31	 1.66	-0.13	-26.66	-7.21	-8.13	 1.86	 1.90	 17.53	-1.60	-14.67	 0.00	 2.70	 32.29	 13.19	 5.15	 0.00	-24.16	 15.66	 0.00	 0.00	 0.00	 15.03	 0.00	 12.58	-24.24	 17.01	-3.35	 0.00	-34.99	-17.90	 0.00	 0.00	 0.00	-5.87	 47.59	 0.00	 7.87	-41.27	 9.75
 0.02	 39.61	 0.06	-0.14	-12.43	 0.48	 13.73	 11.52	-2.79	 2.04	 2.11	 9.06	-3.84	 2.87	 2.11	 0.89	 16.22	-0.25	 1.60	-0.03	-26.36	-7.21	-8.05	 1.87	 1.67	 17.27	-0.98	-14.60	 0.00	 2.28	 31.75	 13.22	 5.48	 0.00	-24.16	 15.67	 0.00	 0.00	 0.00	 14.68	 0.00	 12.33	-23.97	 16.65	-3.12	 0.00	-34.58	-17.69	 0.00	 0.00	 0.00	-6.04	 47.14	 0.00	 8.11	-40.81	 9.37
8.03	 35.01	 88.36	-3.41	 14.78	-164.35	 13.09	 40.30	-24.60	 7.88	 43.80	 0.00	-3.61	-41.45	 5.82	 10.08	 0.00	 10.21	 97.95	-23.53	-2.14	-101.86	-80.77	-98.91	 0.69	 0.03	 0.00	-14.04	 0.00	-10.50	-85.52	-13.72	-102.93	 61.91	-61.18	 65.18	-1.57	 0.69	 0.02	 15.00	 22.78	-5.92	 14.93	 49.99	 6.60	 0.00	-1.14	 0.00	-16.58	-10.51	-3.11	 15.38	 52.66	-21.80	 0.00	-23.95	 0.00
7.81	 35.10	 86.47	-3.78	 12.94	-166.97	 12.64	 42.57	-22.34	 7.67	 43.61	 0.00	-4.23	-41.41	 4.89	 19.10	 0.00	 4.16	 93.12	-9.69	-9.43	 132.67	-81.86	 136.80	 0.70	 0.37	 0.00	-8.62	 0.00	-21.82	-87.31	-27.57	-100.09	 56.17	-61.56	 58.72	-1.63	 0.95	 0.03	 13.16	 15.44	-3.56	 7.97	 59.29	 4.97	 0.00	 1.64	 0.00	-17.18	-10.02	-3.08	 13.56	 53.38	-18.07	 0.00	-25.93	 0.00
8.03	 35.01	 88.36	-3.41	 14.78	-164.35	 13.09	 40.30	-24.60	 7.88	 43.80	 0.00	-3.61	-41.45	 5.82	 10.08	 0.00	 10.21	 97.95	-23.53	-2.14	-101.86	-80.77	-98.91	 0.69	 0.03	 0.00	-14.04	 0.00	-10.50	-85.52	-13.72	-102.93	 61.91	-61.18	 65.18	-1.57	 0.69	 0.02	 15.00	 22.78	-5.92	 14.93	 49.99	 6.60	 0.00	-1.14	 0.00	-16.58	-10.51	-3.11	 15.38	 52.66	-21.80	 0.00	-23.95	 0.00
7.81	 35.10	 86.47	-3.78	 12.94	-166.97	 12.64	 42.57	-22.34	 7.67	 43.61	 0.00	-4.23	-41.41	 4.89	 19.10	 0.00	 4.16	 93.12	-9.69	-9.43	 132.67	-81.86	 136.80	 0.70	 0.37	 0.00	-8.62	 0.00	-21.82	-87.31	-27.57	-100.09	 56.17	-61.56	 58.72	-1.63	 0.95	 0.03	 13.16	 15.44	-3.56	 7.97	 59.29	 4.97	 0.00	 1.64	 0.00	-17.18	-10.02	-3.08	 13.56	 53.38	-18.07	 0.00	-25.93	 0.00
8.03	 35.01	 88.36	-3.41	 14.78	-164.35	 13.09	 40.30	-24.60	 7.88	 43.80	 0.00	-3.61	-41.45	 5.82	 10.08	 0.00	 10.21	 97.95	-23.53	-2.14	-101.86	-80.77	-98.91	 0.69	 0.03	 0.00	-14.04	 0.00	-10.50	-85.52	-13.72	-102.93	 61.91	-61.18	 65.18	-1.57	 0.69	 0.02	 15.00	 22.78	-5.92	 14.93	 49.99	 6.60	 0.00	-1.14	 0.00	-16.58	-10.51	-3.11	 15.38	 52.66	-21.80	 0.00	-23.95	 0.00
7.81	 35.10	 86.47	-3.78	 12.94	-166.97	 12.64	 42.57	-22.34	 7.67	 43.61	 0.00	-4.23	-41.41	 4.89	 19.10	 0.00	 4.16	 93.12	-9.69	-9.43	 132.67	-81.86	 136.80	 0.70	 0.37	 0.00	-8.62	 0.00	-21.82	-87.31	-27.57	-100.09	 56.17	-61.56	 58.72	-1.63	 0.95	 0.03	 13.16	 15.44	-3.56	 7.97	 59.29	 4.97	 0.00	 1.64	 0.00	-17.18	-10.02	-3.08	 13.56	 53.38	-18.07	 0.00	-25.93	 0.00
7.81	 35.10	 86.47	-3.78	 12.94	-166.97	 12.64	 42.57	-22.34	 7.67	 43.61	 0.00	-4.23	-41.41	 4.89	 19.10	 0.00	 4.16	 93.12	-9.69	-9.43	 132.67	-81.86	 136.80	 0.70	 0.37	 0.00	-8.62	 0.00	-21.82	-87.31	-27.57	-100.09	 56.17	-61.56	 58.72	-1.63	 0.95	 0.03	 13.16	 15.44	-3.56	 7.97	 59.29	 4.97	 0.00	 1.64	 0.00	-17.18	-10.02	-3.08	 13.56	 53.38	-18.07	 0.00	-25.93	 0.00
8.81	 35.10	 86.47	-3.78	 12.94	-166.97	 12.64	 42.57	-22.34	 7.67	 43.61	 0.00	-4.23	-41.41	 4.89	 19.10	 0.00	 4.16	 93.12	-9.69	-9.43	 132.67	-81.86	 136.80	 0.70	 0.37	 0.00	-8.62	 0.00	-21.82	-87.31	-27.57	-100.09	 56.17	-61.56	 58.72	-1.63	 0.95	 0.03	 13.16	 15.44	-3.56	 7.97	 59.29	 4.97	 0.00	 1.64	 0.00	-17.18	-10.02	-3.08	 13.56	 53.38	-18.07	 0.00	-25.93	 0.00
8.81	 35.10	 86.47	-3.78	 12.94	-166.97	 12.64	 42.57	-22.34	 7.67	 43.61	 0.00	-4.23	-41.41	 4.89	 19.10	 0.00	 4.16	 93.12	-9.69	-9.43	 132.67	-81.86	 136.80	 0.70	 0.37	 0.00	-8.62	 0.00	-21.82	-87.31	-27.57	-100.09	 56.17	-61.56	 58.72	-1.63	 0.95	 0.03	 13.16	 15.44	-3.56	 7.97	 59.29	 4.97	 0.00	 1.64	 0.00	-17.18	-10.02	-3.08	 13.56	 53.38	-18.07	 0.00	-25.93	 0.00
9.81	 35.10	 86.47	-3.78	 12.94	-166.97	 12.64	 42.57	-22.34	 7.67	 43.61	 0.00	-4.23	-41.41	 4.89	 19.10	 0.00	 4.16	 93.12	-9.69	-9.43	 132.67	-81.86	 136.80	 0.70	 0.37	 0.00	-8.62	 0.00	-21.82	-87.31	-27.57	-100.09	 56.17	-61.56	 58.72	-1.63	 0.95	 0.03	 13.16	 15.44	-3.56	 7.97	 59.29	 4.97	 0.00	 1.64	 0.00	-17.18	-10.02	-3.08	 13.56	 53.38	-18.07	 0.00	-25.93	 0.00
9.81	 35.10	 86.47	-3.78	 12.94	-166.97	 12.64	 42.57	-22.34	 7.67	 43.61	 0.00	-4.23	-41.41	 4.89	 19.10	 0.00	 4.16	 93.12	-9.69	-9.43	 132.67	-81.86	 136.80	 0.70	 0.37	 0.00	-8.62	 0.00	-21.82	-87.31	-27.57	-100.09	 56.17	-61.56	 58.72	-1.63	 0.95	 0.03	 13.16	 15.44	-3.56	 7.97	 59.29	 4.97	 0.00	 1.64	 0.00	-17.18	-10.02	-3.08	 13.56	 53.38	-18.07	 0.00	-25.93	 0.00
10.81	 35.10	 86.47	-3.78	 12.94	-166.97	 12.64	 42.57	-22.34	 7.67	 43.61	 0.00	-4.23	-41.41	 4.89	 19.10	 0.00	 4.16	 93.12	-9.69	-9.43	 132.67	-81.86	 136.80	 0.70	 0.37	 0.00	-8.62	 0.00	-21.82	-87.31	-27.57	-100.09	 56.17	-61.56	 58.72	-1.63	 0.95	 0.03	 13.16	 15.44	-3.56	 7.97	 59.29	 4.97	 0.00	 1.64	 0.00	-17.18	-10.02	-3.08	 13.56	 53.38	-18.07	 0.00	-25.93	 0.00
17.81	 35.10	 86.47	-3.78	 12.94	-166.97	 12.64	 42.57	-22.34	 7.67	 43.61	 0.00	-4.23	-41.41	 4.89	 19.10	 0.00	 4.16	 93.12	-9.69	-9.43	 132.67	-81.86	 136.80	 0.70	 0.37	 0.00	-8.62	 0.00	-21.82	-87.31	-27.57	-100.09	 56.17	-61.56	 58.72	-1.63	 0.95	 0.03	 13.16	 15.44	-3.56	 7.97	 59.29	 4.97	 0.00	 1.64	 0.00	-17.18	-10.02	-3.08	 13.56	 53.38	-18.07	 0.00	-25.93	 0.00
27.81	 35.10	 86.47	-3.78	 12.94	-166.97	 12.64	 42.57	-22.34	 7.67	 43.61	 0.00	-4.23	-41.41	 4.89	 19.10	 0.00	 4.16	 93.12	-9.69	-9.43	 132.67	-81.86	 136.80	 0.70	 0.37	 0.00	-8.62	 0.00	-21.82	-87.31	-27.57	-100.09	 56.17	-61.56	 58.72	-1.63	 0.95	 0.03	 13.16	 15.44	-3.56	 7.97	 59.29	 4.97	 0.00	 1.64	 0.00	-17.18	-10.02	-3.08	 13.56	 53.38	-18.07	 0.00	-25.93	 0.00
37.81	 35.10	 86.47	-3.78	 12.94	-166.97	 12.64	 42.57	-22.34	 7.67	 43.61	 0.00	-4.23	-41.41	 4.89	 19.10	 0.00	 4.16	 93.12	-9.69	-9.43	 132.67	-81.86	 136.80	 0.70	 0.37	 0.00	-8.62	 0.00	-21.82	-87.31	-27.57	-100.09	 56.17	-61.56	 58.72	-1.63	 0.95	 0.03	 13.16	 15.44	-3.56	 7.97	 59.29	 4.97	 0.00	 1.64	 0.00	-17.18	-10.02	-3.08	 13.56	 53.38	-18.07	 0.00	-25.93	 0.00
27.81	 35.10	 86.47	-3.78	 12.94	-166.97	 12.64	 42.57	-22.34	 7.67	 43.61	 0.00	-4.23	-41.41	 4.89	 19.10	 0.00	 4.16	 93.12	-9.69	-9.43	 132.67	-81.86	 136.80	 0.70	 0.37	 0.00	-8.62	 0.00	-21.82	-87.31	-27.57	-100.09	 56.17	-61.56	 58.72	-1.63	 0.95	 0.03	 13.16	 15.44	-3.56	 7.97	 59.29	 4.97	 0.00	 1.64	 0.00	-17.18	-10.02	-3.08	 13.56	 53.38	-18.07	 0.00	-25.93	 0.00
17.81	 35.10	 86.47	-3.78	 12.94	-166.97	 12.64	 42.57	-22.34	 7.67	 43.61	 0.00	-4.23	-41.41	 4.89	 19.10	 0.00	 4.16	 93.12	-9.69	-9.43	 132.67	-81.86	 136.80	 0.70	 0.37	 0.00	-8.62	 0.00	-21.82	-87.31	-27.57	-100.09	 56.17	-61.56	 58.72	-1.63	 0.95	 0.03	 13.16	 15.44	-3.56	 7.97	 59.29	 4.97	 0.00	 1.64	 0.00	-17.18	-10.02	-3.08	 13.56	 53.38	-18.07	 0.00	-25.93	 0.00
7.81	 35.10	 86.47	-3.78	 12.94	-166.97	 12.64	 42.57	-22.34	 7.67	 43.61	 0.00	-4.23	-41.41	 4.89	 19.10	 0.00	 4.16	 93.12	-9.69	-9.43	 132.67	-81.86	 136.80	 0.70	 0.37	 0.00	-8.62	 0.00	-21.82	-87.31	-27.57	-100.09	 56.17	-61.56	 58.72	-1.63	 0.95	 0.03	 13.16	 15.44	-3.56	 7.97	 59.29	 4.97	 0.00	 1.64	 0.00	-17.18	-10.02	-3.08	 13.56	 53.38	-18.07	 0.00	-25.93	 0.00
5.81	 35.10	 86.47	-3.78	 12.94	-166.97	 12.64	 42.57	-22.34	 7.67	 43.61	 0.00	-4.23	-41.41	 4.89	 19.10	 0.00	 4.16	 93.12	-9.69	-9.43	 132.67	-81.86	 136.80	 0.70	 0.37	 0.00	-8.62	 0.00	-21.82	-87.31	-27.57	-100.09	 56.17	-61.56	 58.72	-1.63	 0.95	 0.03	 13.16	 15.44	-3.56	 7.97	 59.29	 4.97	 0.00	 1.64	 0.00	-17.18	-10.02	-3.08	 13.56	 53.38	-18.07	 0.00	-25.93	 0.00
1.81	 35.10	 86.47	-3.78	 12.94	-166.97	 12.64	 42.57	-22.34	 7.67	 43.61	 0.00	-4.23	-41.41	 4.89	 19.10	 0.00	 4.16	 93.12	-9.69	-9.43	 132.67	-81.86	 136.80	 0.70	 0.37	 0.00	-8.62	 0.00	-21.82	-87.31	-27.57	-100.09	 56.17	-61.56	 58.72	-1.63	 0.95	 0.03	 13.16	 15.44	-3.56	 7.97	 59.29	 4.97	 0.00	 1.64	 0.00	-17.18	-10.02	-3.08	 13.56	 53.38	-18.07	 0.00	-25.93	 0.00
5.81	 35.10	 86.47	-3.78	 12.94	-166.97	 12.64	 42.57	-22.34	 7.67	 43.61	 0.00	-4.23	-41.41	 4.89	 19.10	 0.00	 4.16	 93.12	-9.69	-9.43	 132.67	-81.86	 136.80	 0.70	 0.37	 0.00	-8.62	 0.00	-21.82	-87.31	-27.57	-100.09	 56.17	-61.56	 58.72	-1.63	 0.95	 0.03	 13.16	 15.44	-3.56	 7.97	 59.29	 4.97	 0.00	 1.64	 0.00	-17.18	-10.02	-3.08	 13.56	 53.38	-18.07	 0.00	-25.93	 0.00
